<svg width="48" height="21" viewBox="0 0 48 21" fill="none" xmlns="http://www.w3.org/2000/svg">
<path d="M10.6643 12.2578L23.4494 2.23828C23.59 2.12109 23.7893 2.03906 23.965 2.03906C24.1525 2.03906 24.3518 2.12109 24.5041 2.23828L37.2775 12.2578C38.4025 13.1484 39.551 11.6602 38.6135 10.9336L25.4533 0.585938C24.9729 0.210938 24.4807 0 23.965 0C23.4611 0 22.9689 0.210938 22.4885 0.585938L9.32832 10.9336C8.39082 11.6602 9.53926 13.1484 10.6643 12.2578ZM13.7932 20.4023H34.1486C35.7775 20.4023 36.715 19.5 36.715 17.8945V13.7109C36.3752 13.5938 36.0471 13.4062 35.7189 13.1484L23.965 3.9375L12.2111 13.1484C11.8947 13.4062 11.5549 13.5938 11.2268 13.7109V17.8945C11.2268 19.5 12.176 20.4023 13.7932 20.4023ZM20.9182 18.5742V13.3594C20.9182 12.8789 21.258 12.5508 21.7268 12.5508H26.2268C26.7072 12.5508 27.0236 12.8789 27.0236 13.3594V18.5742H20.9182ZM8.30879 9.60938L13.8166 5.28516H9.21113C8.70723 5.28516 8.27363 5.41406 7.89863 5.67188L0.363478 10.9336C-0.304491 11.3906 -0.0232409 12.5273 0.972853 12.5273H7.51192C7.11348 11.5898 7.2541 10.4414 8.30879 9.60938ZM9.5627 17.8945V14.2031H2.2502V17.8945C2.2502 19.5 3.1877 20.4023 4.8166 20.4023H10.2893C9.82051 19.7461 9.5627 18.8789 9.5627 17.8945ZM39.6447 9.60938C40.6877 10.4414 40.8283 11.5898 40.4299 12.5273H46.9689C47.965 12.5273 48.2463 11.3906 47.59 10.9336L40.0314 5.67188C39.6682 5.41406 39.2229 5.28516 38.7307 5.28516H34.1252L39.6447 9.60938ZM38.3791 17.8945C38.3791 18.8789 38.1096 19.7461 37.6525 20.4023H43.1369C44.7424 20.4023 45.6916 19.5 45.6916 17.8945V14.2031H38.3791V17.8945Z" fill="#CB473C"/>
</svg>
