<svg width="43" height="50" viewBox="0 0 43 50" fill="none" xmlns="http://www.w3.org/2000/svg">
<path d="M4.96069 50V42.9958H42.5474V50H37.7624C26.2783 42.233 14.4845 46.7638 10.0231 50H4.96069Z" fill="#CB473C"/>
<path d="M22.7138 9.84744H17.9288L11.8262 41.5395H14.4614L15.0855 38.9043L16.4031 40.2219L15.0855 41.1234V41.7476H21.6043V41.1234L20.4253 40.2219L23.8927 36.7545L27.4988 40.2219L26.1812 41.1234V41.7476H32.5613V41.1234L31.3823 40.0139L32.8387 38.9737L33.3241 41.6089H36.4448L29.5099 9.84744H25.2797L23.8927 11.2344L22.7138 9.84744Z" fill="#CB473C"/>
<path d="M19.9399 15.0485L20.4947 11.6505L21.743 13.1068L19.9399 15.0485Z" fill="white"/>
<path d="M27.1521 11.7892L26.0425 13.1068L27.8455 14.7712L27.1521 11.7892Z" fill="white"/>
<path d="M20.564 18.4466L23.8233 14.8405L27.4294 18.4466L23.8233 21.9833L20.564 18.4466Z" fill="white"/>
<path d="M17.6514 26.2829L18.6222 20.7351L21.951 23.8557L18.6222 27.5312L17.6514 26.2829Z" fill="white"/>
<path d="M29.0245 20.8044L26.0425 23.8558L29.5792 27.1845L30.134 26.491L29.0245 20.8044Z" fill="white"/>
<path d="M20.4253 29.1262L23.962 25.8669L27.4295 29.1262L23.962 32.7323L20.4253 29.1262Z" fill="white"/>
<path d="M25.9731 34.7434L29.5099 31.276L32.0064 33.6338L32.2145 35.7836L29.5099 38.2802L25.9731 34.7434Z" fill="white"/>
<path d="M15.987 33.5645L18.4142 31.2067L22.0203 34.8128L18.4142 38.2802L15.6403 35.4369L15.987 33.5645Z" fill="white"/>
<path d="M21.4656 2.49653V0H26.1119V2.49653H21.4656Z" fill="#CB473C"/>
<path d="M17.166 8.73786V3.67545H30.4115V8.73786H17.166Z" fill="#CB473C"/>
<path d="M15.0637 38.9736L14.4396 41.5395L15.0637 41.7476V41.1928L16.312 40.2219L15.0637 38.9736Z" fill="white"/>
<path d="M32.5395 41.1234V41.7476L33.3023 41.6089L32.8169 38.9736L31.3606 40.0139L32.5395 41.1234Z" fill="white"/>
<path d="M21.5825 41.1234L21.6518 41.7476H26.1595V41.1234L27.4771 40.2219L23.871 36.7545L20.4036 40.2219L21.5825 41.1234Z" fill="white"/>
<path d="M0.0370159 14.6325C-0.295855 12.2469 3.27326 5.96394 5.09943 3.12067C5.86226 4.55386 7.67918 7.96117 8.84423 10.1248C10.3005 12.8294 10.3699 14.6325 9.9538 16.0888C9.53771 17.5451 8.0814 19.3481 6.34769 19.8336C4.96073 20.2219 2.76471 19.3481 1.84007 18.8627C1.37775 18.4466 0.369887 17.018 0.0370159 14.6325Z" fill="#CB473C"/>
<path d="M1.84003 14.9792C2.71844 15.0717 4.43365 15.8807 4.26721 18.3772C3.36569 18.3772 1.49329 17.4757 1.84003 14.9792Z" fill="white"/>
</svg>
